<svg width="66" height="78" viewBox="0 0 66 78" fill="none" xmlns="http://www.w3.org/2000/svg">
<path d="M33 3C20.3092 3 10.0213 13.3226 10.0213 26.0562V39.9101C10.0213 43.2238 6.90228 45.8254 4.72817 48.3262C3.6519 49.5642 3 51.1832 3 52.9551C3 56.8459 6.14353 60 10.0213 60H55.9787C59.8565 60 63 56.8459 63 52.9551C63 51.1832 62.3481 49.5642 61.2718 48.3262C59.0977 45.8254 55.9787 43.2238 55.9787 39.9101V26.0562C55.9787 13.3226 45.6908 3 33 3Z" stroke="black" stroke-width="5"/>
<path d="M45.0002 69.5C42.2636 73.1433 37.9066 75.5 32.9991 75.5C28.0917 75.5 23.7347 73.1433 20.998 69.5" stroke="black" stroke-width="5" stroke-linecap="round"/>
</svg>
