<svg width="579" height="814" viewBox="0 0 579 814" fill="none" xmlns="http://www.w3.org/2000/svg">
<mask id="mask0" mask-type="alpha" maskUnits="userSpaceOnUse" x="0" y="0" width="579" height="814">
<path d="M578.466 535.671C578.466 689.116 449.19 813.508 289.72 813.508C130.25 813.508 0.974609 689.116 0.974609 535.671C0.974609 382.226 253.177 196.729 354.978 0C474.025 202.536 578.466 382.226 578.466 535.671Z" fill="#C4C4C4"/>
</mask>
<g mask="url(#mask0)">
<path d="M578.464 535.676C578.464 689.121 449.188 813.512 289.718 813.512C130.248 813.512 0.972656 689.121 0.972656 535.676C0.972656 382.231 247.11 203.053 354.837 0.0444336C468.768 189.627 578.464 382.231 578.464 535.676Z" fill="#FAFAFA"/>
<path d="M227.964 456.381C98.0352 482.309 82.9955 471.336 9.42958 474.929L-84.2561 604.709L169.14 804.593L466.096 756.857L668.646 609.183L562.592 421.995C527.373 415.06 528.827 401.155 425.387 417.011C321.948 432.867 357.893 430.453 227.964 456.381Z" fill="#A4D2E6"/>
<path d="M178.241 512.123C87.4036 518.246 99.6814 497.784 9.42958 474.929L-68.5904 660.965L184.805 860.849L481.762 813.114L684.312 665.439L562.592 421.995C539.597 418.315 521.856 411.869 413.52 434.165C302.695 456.973 269.078 506 178.241 512.123Z" fill="#6FA9C2"/>
<path d="M573.464 535.676C573.464 686.18 446.61 808.512 289.718 808.512C132.827 808.512 5.97266 686.18 5.97266 535.676C5.97266 498.615 20.8529 459.566 45.4101 418.356C69.9479 377.179 103.857 334.313 141.337 289.661C154.067 274.495 167.211 259.123 180.527 243.551C243.4 170.021 310.092 92.0258 355.068 10.1405C410.461 102.456 464.391 195.147 504.828 283.493C546.393 374.303 573.464 460.031 573.464 535.676Z" stroke="#FAFAFA" stroke-width="10"/>
</g>
</svg>
